<svg preserveAspectRatio="none" width="100%" height="100%" overflow="visible" style="display: block;" viewBox="0 0 10 17.3333" fill="none" xmlns="http://www.w3.org/2000/svg">
<path id="Vector" d="M9.57813 7.64072L2.44709 0.424449C2.31411 0.289882 2.15624 0.183138 1.9825 0.110311C1.80876 0.0374841 1.62254 0 1.43448 0C1.05468 0 0.69043 0.152679 0.42187 0.424449C0.288892 0.559016 0.183408 0.718771 0.111441 0.894591C0.0394745 1.07041 0.00243406 1.25885 0.00243406 1.44916C0.00243406 1.8335 0.153309 2.2021 0.42187 2.47387L6.55457 8.66544L0.42187 14.857C0.288193 14.9912 0.182093 15.1508 0.109686 15.3267C0.0372791 15.5025 0 15.6912 0 15.8817C0 16.0722 0.0372791 16.2609 0.109686 16.4368C0.182093 16.6126 0.288193 16.7723 0.42187 16.9064C0.554454 17.0417 0.712194 17.1491 0.885991 17.2223C1.05979 17.2956 1.2462 17.3333 1.43448 17.3333C1.62275 17.3333 1.80917 17.2956 1.98296 17.2223C2.15676 17.1491 2.3145 17.0417 2.44709 16.9064L9.57813 9.69015C9.7118 9.55598 9.81791 9.39635 9.89031 9.22048C9.96272 9.0446 10 8.85596 10 8.66544C10 8.47491 9.96272 8.28627 9.89031 8.11039C9.81791 7.93452 9.7118 7.77489 9.57813 7.64072Z" fill="var(--fill-0, #414141)"/>
</svg>
