<svg preserveAspectRatio="xMidYMid meet" width="100%" height="100%" viewBox="0 0 99 189" fill="none" xmlns="http://www.w3.org/2000/svg">
<g id="Group 1321315235">
<path id="Rectangle 58" d="M0 71H99V185C99 187.209 97.2091 189 95 189H4C1.79086 189 0 187.209 0 185V71Z" fill="#731818"/>
<rect id="Rectangle 59" x="96" y="48" width="93" height="43" rx="2" transform="rotate(-180 96 48)" fill="#731818"/>
<path id="Rectangle 139" d="M87.1179 48.9997L11.882 49L3.48361 7.39575C3.23359 6.15717 4.18051 5 5.44407 5L93.5559 5.00001C94.8195 5.00001 95.7664 6.15718 95.5164 7.39576L87.1179 48.9997Z" fill="#430606"/>
<path id="Rectangle 138" d="M92 45L7 45L7 25L92 25L92 45Z" fill="#310000"/>
<rect id="Rectangle 127" x="19" width="12" height="71" fill="url(#paint0_linear_0_113)"/>
<rect id="Rectangle 135" width="12" height="1" transform="matrix(1 0 0 -1 19 42)" fill="#C9C9C9"/>
<rect id="Rectangle 129" x="43" y="31" width="12" height="40" fill="url(#paint1_linear_0_113)"/>
<rect id="Rectangle 131" x="67" y="38" width="12" height="33" fill="url(#paint2_linear_0_113)"/>
<rect id="Rectangle 128" x="7" y="38" width="12" height="33" fill="url(#paint3_linear_0_113)"/>
<rect id="Rectangle 130" x="31" y="18" width="12" height="49" fill="url(#paint4_linear_0_113)"/>
<rect id="Rectangle 132" x="55" y="38" width="12" height="33" fill="url(#paint5_linear_0_113)"/>
<rect id="Rectangle 134" x="79" y="38" width="12" height="33" fill="url(#paint6_linear_0_113)"/>
<rect id="Rectangle 136" width="12" height="1" transform="matrix(1 0 0 -1 31 55)" fill="#C9C9C9"/>
<rect id="Rectangle 137" width="12" height="1" transform="matrix(1 0 0 -1 43 68)" fill="#C9C9C9"/>
</g>
<defs>
<linearGradient id="paint0_linear_0_113" x1="19" y1="51.4388" x2="31" y2="51.4388" gradientUnits="userSpaceOnUse">
<stop stop-color="white"/>
<stop offset="1" stop-color="#D4D4D4"/>
</linearGradient>
<linearGradient id="paint1_linear_0_113" x1="43" y1="59.9796" x2="55" y2="59.9796" gradientUnits="userSpaceOnUse">
<stop stop-color="white"/>
<stop offset="1" stop-color="#D4D4D4"/>
</linearGradient>
<linearGradient id="paint2_linear_0_113" x1="67" y1="61.9082" x2="79" y2="61.9082" gradientUnits="userSpaceOnUse">
<stop stop-color="white"/>
<stop offset="1" stop-color="#D4D4D4"/>
</linearGradient>
<linearGradient id="paint3_linear_0_113" x1="7" y1="61.9082" x2="19" y2="61.9082" gradientUnits="userSpaceOnUse">
<stop stop-color="white"/>
<stop offset="1" stop-color="#D4D4D4"/>
</linearGradient>
<linearGradient id="paint4_linear_0_113" x1="31" y1="53.5" x2="43" y2="53.5" gradientUnits="userSpaceOnUse">
<stop stop-color="white"/>
<stop offset="1" stop-color="#D4D4D4"/>
</linearGradient>
<linearGradient id="paint5_linear_0_113" x1="55" y1="61.9082" x2="67" y2="61.9082" gradientUnits="userSpaceOnUse">
<stop stop-color="white"/>
<stop offset="1" stop-color="#D4D4D4"/>
</linearGradient>
<linearGradient id="paint6_linear_0_113" x1="79" y1="61.9082" x2="91" y2="61.9082" gradientUnits="userSpaceOnUse">
<stop stop-color="white"/>
<stop offset="1" stop-color="#D4D4D4"/>
</linearGradient>
</defs>
</svg>
