<svg width="40" height="40" viewBox="0 0 40 40" fill="none" xmlns="http://www.w3.org/2000/svg">
<path d="M13.3281 13.3333V11.6667C13.3281 7.98477 16.3129 5 19.9948 5C23.6766 5 26.6615 7.98477 26.6615 11.6667V13.3333" stroke="#DCC090" stroke-width="3.33333" stroke-linecap="round"/>
<path fill-rule="evenodd" clip-rule="evenodd" d="M5.97632 12.6404C5 13.6167 5 15.188 5 18.3307V23.3307C5 29.6161 5 32.7589 6.95262 34.7114C8.90525 36.6641 12.0479 36.6641 18.3333 36.6641H21.6667C27.952 36.6641 31.0948 36.6641 33.0473 34.7114C35 32.7589 35 29.6161 35 23.3307V18.3307C35 15.188 35 13.6167 34.0237 12.6404C33.0473 11.6641 31.476 11.6641 28.3333 11.6641H11.6667C8.52397 11.6641 6.95262 11.6641 5.97632 12.6404ZM16.6667 19.9974C16.6667 19.0769 15.9205 18.3307 15 18.3307C14.0795 18.3307 13.3333 19.0769 13.3333 19.9974V23.3307C13.3333 24.2512 14.0795 24.9974 15 24.9974C15.9205 24.9974 16.6667 24.2512 16.6667 23.3307V19.9974ZM26.6667 19.9974C26.6667 19.0769 25.9205 18.3307 25 18.3307C24.0795 18.3307 23.3333 19.0769 23.3333 19.9974V23.3307C23.3333 24.2512 24.0795 24.9974 25 24.9974C25.9205 24.9974 26.6667 24.2512 26.6667 23.3307V19.9974Z" fill="#DCC090"/>
</svg>
