<svg preserveAspectRatio="none" width="100%" height="100%" overflow="visible" style="display: block;" viewBox="0 0 100.005 49.9974" fill="none" xmlns="http://www.w3.org/2000/svg">
<g id="Layer 1">
<path id="Path 105" fill-rule="evenodd" clip-rule="evenodd" d="M63.3738 37.2804C62.1437 36.7378 60.364 36.9362 61.0166 34.9854C61.2191 34.4908 61.5674 34.0701 62.0149 33.7798C62.4623 33.4894 62.9875 33.3432 63.52 33.3608C65.3578 33.3469 67.0265 35.4862 65.7956 35.9419C64.8155 36.3034 64.639 34.7436 63.159 34.646C62.2605 34.7149 63.0626 36.1083 64.2437 36.6247C65.5367 37.1911 67.6513 38.1157 65.7956 39.796C65.2011 40.2831 64.4513 40.5383 63.6842 40.5149C62.0759 40.5313 59.7236 38.869 61.1056 37.9091C62.1732 37.1673 61.6496 39.0788 63.5494 39.1493C64.6415 39.1075 65.1438 38.0649 63.3738 37.2804Z" fill="var(--fill-0, white)"/>
<path id="Path 106" fill-rule="evenodd" clip-rule="evenodd" d="M69.5803 34.8262L68.9881 34.8205C68.9457 34.8205 66.5876 34.7254 67.9598 33.6984C68.4376 33.3402 71.7317 33.3861 72.279 33.6238C72.6285 33.7738 74.2515 34.8336 72.7486 34.8336H71.3772C71.2081 34.8336 71.1591 34.9082 71.16 35.0082C71.1861 36.2631 71.6239 38.5328 71.16 39.5754C71.0342 39.8574 70.7614 40.5344 70.3759 40.518C69.5419 40.518 69.7265 36.1017 69.7527 35.032C69.7461 34.8885 69.7232 34.8262 69.5803 34.8262Z" fill="var(--fill-0, white)"/>
<path id="Path 107" fill-rule="evenodd" clip-rule="evenodd" d="M75.2963 38.9489C74.9533 38.0964 74.1381 33.3751 75.8322 33.3751C76.2651 33.3636 76.3614 34.3587 76.4562 34.671C76.8972 36.112 75.4083 38.9989 78.0996 39.1226C79.1736 39.0718 79.2136 37.8702 79.3067 36.88C79.3664 36.2431 78.7571 33.3759 80.0141 33.3759C81.0849 33.3759 80.7492 35.9054 80.7247 36.5349C80.643 38.5604 80.3531 40.5612 77.857 40.5153C77.3275 40.5178 76.8077 40.3726 76.3556 40.0961C75.9034 39.8195 75.5367 39.4223 75.2963 38.9489Z" fill="var(--fill-0, white)"/>
<path id="Path 108" fill-rule="evenodd" clip-rule="evenodd" d="M82.4813 35.3379C82.6096 33.319 84.284 32.9395 85.6382 33.8248C87.8713 35.2838 88.372 35.7871 88.372 36.6715C88.372 38.5846 86.0548 40.4772 84.333 40.4567C81.5233 40.4953 82.3645 37.2026 82.4813 35.3379ZM84.7545 39.0002C85.7542 38.9428 87.0733 38.0117 87.0733 36.8207C87.0733 35.9682 85.7771 34.9231 84.7128 34.8535C83.6665 34.9289 83.0408 38.9018 84.7545 39.0002Z" fill="var(--fill-0, white)"/>
<path id="Path 109" fill-rule="evenodd" clip-rule="evenodd" d="M96.6249 33.398C97.3424 33.3464 98.0533 33.5658 98.6179 34.0132C99.1825 34.4606 99.56 35.1037 99.6764 35.8161C100.344 38.4718 99.3791 40.5972 96.7564 40.5841C94.9872 40.5759 93.0882 39.3661 93.0906 37.3136C93.0661 36.8236 93.1381 36.3334 93.3025 35.8713C93.4669 35.4092 93.7205 34.9841 94.0488 34.6205C94.377 34.2568 94.7735 33.9616 95.2155 33.7519C95.6576 33.5421 96.1365 33.4219 96.6249 33.398ZM96.6183 34.6193C93.0866 34.7923 94.5764 39.4366 97.0668 39.5652C98.9527 39.4407 98.804 34.7103 96.6151 34.6193H96.6183Z" fill="var(--fill-0, white)"/>
<path id="Path 110" fill-rule="evenodd" clip-rule="evenodd" d="M90.2706 40.4874C89.7896 40.4358 89.8925 40.2374 89.8622 39.7112C89.7901 37.8912 89.8324 36.0685 89.9888 34.2538C90.0258 34.068 90.1037 33.8927 90.2167 33.7408C90.3298 33.589 90.4751 33.4643 90.6422 33.376C91.6404 32.8587 91.2352 36.685 91.41 37.6899C91.6044 38.812 91.5326 40.6194 90.2706 40.4874Z" fill="var(--fill-0, white)"/>
<path id="Path 111" fill-rule="evenodd" clip-rule="evenodd" d="M33.681 15.2314C33.2032 14.3937 31.1147 13.8437 29.9524 13.8208C28.0321 13.8872 27.1353 16.3618 25.5654 16.3249C24.2349 16.3626 23.5496 14.7937 23.3454 13.6773C22.7279 10.3306 26.7759 9.2134 30.5331 9.21913C32.0728 9.20848 34.6334 9.41667 36.0056 10.156C39.606 12.0921 38.8962 17.3568 38.7786 20.7224C38.7067 22.7716 38.8268 24.2011 39.9433 25.9314C40.5478 26.8675 41.2224 28.724 39.8755 29.3863C39.1551 29.7396 37.5003 29.5249 36.7244 29.5896C35.099 29.7265 33.436 29.9995 31.8098 29.9822C27.9235 30.0101 22.389 27.0822 22.4616 22.6781C22.5384 17.9511 27.6507 17.3765 31.2135 16.8822C31.0167 16.9134 34.4913 16.6618 33.6769 15.2331L33.681 15.2314ZM30.6989 26.8863C32.812 26.8519 35.0206 25.829 34.9283 23.6527C34.8629 22.0954 33.8142 20.1568 32.0613 20.106C30.5993 20.1519 28.5908 21.915 27.7675 23.0404C25.9657 25.5027 28.229 26.8716 30.6989 26.8863Z" fill="var(--fill-0, white)"/>
<path id="Path 112" fill-rule="evenodd" clip-rule="evenodd" d="M77.5478 15.2314C77.07 14.3937 74.9815 13.8437 73.8193 13.8208C71.899 13.8872 71.0021 16.3618 69.4323 16.3249C68.0985 16.3626 67.4156 14.788 67.2114 13.6773C66.5956 10.3306 70.637 9.2134 74.409 9.21913C75.9486 9.20848 78.5092 9.41667 79.8814 10.156C83.4818 12.0921 82.772 17.3568 82.6544 20.7224C82.5825 22.7716 82.7026 24.2011 83.8192 25.9314C84.4236 26.8675 85.0982 28.724 83.7514 29.3863C83.031 29.7396 81.3761 29.5249 80.5994 29.5896C78.9748 29.7265 77.3118 29.9995 75.6848 29.9822C71.7985 30.0101 66.2632 27.0822 66.3367 22.6781C66.4134 17.9511 71.5257 17.3765 75.0885 16.8822C74.8917 16.9134 78.3663 16.6618 77.5519 15.2331L77.5478 15.2314ZM74.5657 26.8863C76.6796 26.8519 78.8874 25.829 78.7951 23.6527C78.7298 22.0954 77.681 20.1568 75.9274 20.106C74.467 20.1519 72.4584 21.915 71.6343 23.0404C69.8374 25.5027 72.095 26.8716 74.5657 26.8863Z" fill="var(--fill-0, white)"/>
<path id="Path 113" fill-rule="evenodd" clip-rule="evenodd" d="M8.84332 29.9892C3.10457 29.9892 -0.057208 24.1023 0.000783846 18.5851C0.0693939 12.2211 4.44574 6.34653 14.4383 10.5523C20.7709 13.2195 20.1248 16.581 19.4003 25.0605C18.8661 31.3039 17.4882 40.4088 9.53023 40.4088C6.16426 40.4088 -2.12041 37.0367 0.641145 32.9326C2.75907 29.7826 7.90401 35.1457 10.6353 35.1293C12.536 35.1146 13.3193 32.3949 13.7212 29.5088C13.7718 29.1392 13.6297 28.7515 12.9518 29.0777C11.6632 29.6699 10.263 29.9774 8.84577 29.9793L8.84332 29.9892ZM9.26069 26.3826C10.5234 26.3678 11.8164 25.5326 12.9019 23.4383C13.4426 22.4187 14.7487 14.8916 9.01566 14.8162C0.265422 14.8629 4.7847 26.417 9.26069 26.3826Z" fill="var(--fill-0, white)"/>
<path id="Path 114" fill-rule="evenodd" clip-rule="evenodd" d="M94.1881 14.6294C94.1058 14.6064 94.0194 14.6027 93.9354 14.6184C93.8515 14.6342 93.7722 14.6691 93.7038 14.7204C91.2535 17.8024 94.4699 29.9835 90.5444 29.9835C85.8259 29.9835 87.8752 21.2089 87.4113 18.245C87.2691 17.3434 85.3693 9.20647 87.2683 9.21876C88.2966 9.44019 89.336 9.60627 90.3819 9.7163C91.759 9.69991 92.8682 9.21466 94.3686 9.25729C99.9359 9.39007 102.027 15.5958 97.6579 15.5442C96.4502 15.4867 95.268 15.1751 94.1881 14.6294Z" fill="var(--fill-0, white)"/>
<path id="Path 115" fill-rule="evenodd" clip-rule="evenodd" d="M51.4995 13.995C50.7276 11.5762 58.4136 7.10488 61.1964 5.60488C61.5835 5.39258 61.2593 5.09996 60.9612 5.00242C58.9192 4.33684 55.282 3.2811 55.9583 1.36717C56.7106 -0.768895 62.9949 1.49012 64.319 2.13766C66.9376 3.41799 68.1922 4.78192 67.5191 6.88274C66.7611 9.24996 60.556 11.2541 57.6801 12.7795C57.6292 12.8066 57.5874 12.8482 57.5598 12.899C57.5322 12.9498 57.52 13.0076 57.5248 13.0652C57.5296 13.1229 57.5511 13.1778 57.5867 13.2234C57.6223 13.2689 57.6704 13.3029 57.725 13.3213C59.6502 13.968 63.2367 14.7967 63.9261 16.2827C65.5719 19.9032 52.139 15.9934 51.4995 13.995Z" fill="var(--fill-0, white)"/>
<path id="Path 116" fill-rule="evenodd" clip-rule="evenodd" d="M47.9947 12.7313C47.695 12.8223 47.5047 12.6395 47.637 12.3788C49.1023 9.55014 52.6594 4.75588 52.1236 2.39194C51.6752 0.391123 50.4083 -0.0670741 48.6931 0.00751609C46.4984 0.107516 38.7365 1.78457 39.3817 4.18784C39.6504 5.18211 40.8519 5.23948 41.6916 5.20424C43.1857 5.08162 44.6592 4.77607 46.0794 4.2944C46.331 4.21981 46.772 4.18866 46.5605 4.60834C45.1556 7.36162 40.932 15.5305 42.889 17.0436C43.9508 17.8633 48.6637 16.5419 50.8788 15.7682C51.511 15.5469 51.6793 15.5059 51.2823 15.2436C50.9746 15.0195 50.7093 14.7419 50.499 14.4239C50.33 14.1367 50.2393 13.8099 50.236 13.4764C50.236 12.3165 50.3912 12.1518 49.2877 12.3542C48.8502 12.4562 48.4186 12.5821 47.9947 12.7313Z" fill="var(--fill-0, white)"/>
<path id="Path 117" fill-rule="evenodd" clip-rule="evenodd" d="M61.5474 25.4641C62.4924 19.6346 56.4196 18.1379 51.5328 17.8305C48.0206 17.6092 44.2724 18.2576 43.962 20.1633C43.672 21.9387 46.9604 22.5838 48.9623 22.9953C50.5428 23.3232 51.3237 23.5486 48.9166 23.7559C46.4328 23.9691 43.1435 23.0469 42.9124 25.5912C42.7927 27.1946 42.7897 28.8046 42.9034 30.4084C43.079 33.6822 47.9324 34.7117 49.7407 35.2256C50.5281 35.4551 50.7339 35.6846 49.7203 35.7855C46.9008 36.0846 43.1043 33.842 43.3126 38.092C43.6442 44.8248 43.8909 49.6379 46.1183 49.9773C47.1115 50.1297 48.304 49.4035 49.5357 48.2174C50.8352 46.9625 48.1513 46.9133 47.2038 46.2674C45.5016 45.1043 51.0901 47.815 53.7699 43.515C54.7836 41.8928 53.6948 42.2314 51.5328 41.5477C47.9896 40.4248 48.2893 40.2805 51.4756 40.2863C53.4359 40.2863 56.2342 39.8125 57.3622 37.3518C61.8374 27.5887 59.5887 31.4379 51.2918 29.6354C42.3684 27.6961 60.7265 30.5109 61.5474 25.4641Z" fill="var(--fill-0, white)"/>
</g>
</svg>
