<svg preserveAspectRatio="none" width="100%" height="100%" overflow="visible" style="display: block;" viewBox="0 0 159.916 40" fill="none" xmlns="http://www.w3.org/2000/svg">
<g id="Logo">
<path id="Vector" fill-rule="evenodd" clip-rule="evenodd" d="M15.3285 0H20.5295V3.1476C24.5895 3.38251 27.1386 3.78184 30.9126 5.39357V1.92054L35.858 3.92758C35.858 6.43121 35.8621 9.87716 35.741 12.148C30.2095 9.55997 24.0527 7.98772 17.9168 7.98772C11.7908 7.98772 5.64197 9.55068 0.115972 12.1321C-0.00387573 9.86638 1.44571e-05 6.42538 1.44571e-05 3.92758L4.94548 1.92054V5.39357C8.7194 3.78184 11.2687 3.38251 15.3285 3.1476V0ZM17.1738 39.9629C11.4332 36.7285 7.35558 32.9818 4.16489 27.1707H9.91563C10.628 28.1809 11.4246 29.1123 12.2044 29.9313V24.6588C9.32821 24.5169 5.88031 24.6426 2.91405 24.6573C1.38237 21.2297 0.572312 17.7654 0.247183 14.0346C6.46877 11.103 10.4972 10.3627 17.1738 9.87372C17.1738 12.4668 17.1738 15.0599 17.1738 17.653H12.2056L12.2066 15.387C9.9882 15.7257 7.74835 16.2913 5.65708 17.1086C5.87538 18.1592 6.14514 19.0601 6.38349 19.7549C9.89528 19.7549 13.5372 19.7549 17.1738 19.7549V39.9629ZM23.6173 15.387C25.8357 15.7257 28.0745 16.2913 30.1658 17.1086C29.9475 18.1592 29.6777 19.0601 29.4394 19.7549L34.6236 19.7584C35.0787 18.0455 35.3875 16.2407 35.5757 14.0346C29.3541 11.103 25.326 10.3627 18.6491 9.87372C18.6491 19.9605 18.5841 29.9189 18.5841 40L18.7685 39.9164C24.1686 36.8582 28.1523 33.3052 31.3215 27.7639C31.9685 26.6323 32.5232 25.5341 32.9983 24.4589H27.6961C27.0785 25.942 24.8713 28.9232 23.6183 29.9313C23.6183 25.0836 23.6192 20.2334 23.6173 15.387Z" fill="var(--fill-0, #DCC090)"/>
<path id="Vector_2" d="M58.9473 8.80639V9.63545H56.9424V8.80639C56.9424 8.73592 56.9122 8.70077 56.852 8.70077H50.1891C50.1187 8.70077 50.0836 8.73592 50.0836 8.80639V11.0374C50.0836 11.1079 50.1187 11.143 50.1891 11.143H56.852C57.4248 11.143 57.9173 11.3464 58.3293 11.7535C58.7412 12.1605 58.9473 12.6554 58.9473 13.2384V15.4694C58.9473 16.0523 58.7412 16.5471 58.3293 16.9542C57.9173 17.3612 57.4248 17.5647 56.852 17.5647H50.1891C49.6061 17.5647 49.1112 17.3612 48.7042 16.9542C48.2971 16.5471 48.0938 16.0523 48.0938 15.4694V14.6402H50.0836V15.4694C50.0836 15.5397 50.1187 15.5749 50.1891 15.5749H56.852C56.9122 15.5749 56.9424 15.5397 56.9424 15.4694V13.2384C56.9424 13.168 56.9122 13.1329 56.852 13.1329H50.1891C49.6061 13.1329 49.1112 12.9292 48.7042 12.5223C48.2971 12.1153 48.0938 11.6202 48.0938 11.0374V8.80639C48.0938 8.22362 48.2971 7.72851 48.7042 7.32154C49.1112 6.91457 49.6061 6.71094 50.1891 6.71094H56.852C57.4248 6.71094 57.9173 6.91457 58.3293 7.32154C58.7412 7.72851 58.9473 8.22362 58.9473 8.80639ZM69.002 11.4143L72.9364 6.71094H75.1223V17.5647H73.1175V9.60538L69.002 14.5045L64.8716 9.60538V17.5647H62.8818V6.71094H65.0525L69.002 11.4143ZM81.2575 6.71094H87.9205C88.4932 6.71094 88.9858 6.91457 89.3977 7.32154C89.8098 7.72851 90.0158 8.22362 90.0158 8.80639V15.4694C90.0158 16.0523 89.8098 16.5471 89.3977 16.9542C88.9858 17.3612 88.4932 17.5647 87.9205 17.5647H81.2575C80.6747 17.5647 80.1796 17.3612 79.7727 16.9542C79.3657 16.5471 79.1622 16.0523 79.1622 15.4694V8.80639C79.1622 8.22362 79.3657 7.72851 79.7727 7.32154C80.1796 6.91457 80.6747 6.71094 81.2575 6.71094ZM81.2575 15.5749H87.9205C87.9808 15.5749 88.011 15.5397 88.011 15.4694V8.80639C88.011 8.73592 87.9808 8.70077 87.9205 8.70077H81.2575C81.1872 8.70077 81.152 8.73592 81.152 8.80639V15.4694C81.152 15.5397 81.1872 15.5749 81.2575 15.5749ZM102.286 6.71094H104.472V7.23866L100.372 12.1379L104.472 17.037V17.5647H102.286L98.5781 13.1329H96.0154V17.5647H94.0106V6.71094H96.0154V11.143H98.5781L102.286 6.71094ZM117.391 6.71094H119.773L114.753 13.5096V17.5647H112.763V13.5096L107.743 6.71094H110.11L113.758 11.3238L117.391 6.71094ZM58.9925 24.4255H50.2645C50.1941 24.4255 50.159 24.4606 50.159 24.5309V31.1941C50.159 31.2644 50.1941 31.2996 50.2645 31.2996H58.9925V33.2894H50.2645C49.6815 33.2894 49.1866 33.0859 48.7796 32.6788C48.3725 32.2718 48.1692 31.777 48.1692 31.1941V24.5309C48.1692 23.9482 48.3725 23.4532 48.7796 23.0463C49.1866 22.6393 49.6815 22.4356 50.2645 22.4356H58.9925V24.4255ZM64.9469 22.4356H71.6099C72.1828 22.4356 72.6752 22.6393 73.0871 23.0463C73.4993 23.4532 73.7053 23.9482 73.7053 24.5309V31.1941C73.7053 31.777 73.4993 32.2718 73.0871 32.6788C72.6752 33.0859 72.1828 33.2894 71.6099 33.2894H64.9469C64.3641 33.2894 63.8692 33.0859 63.462 32.6788C63.0552 32.2718 62.8516 31.777 62.8516 31.1941V24.5309C62.8516 23.9482 63.0552 23.4532 63.462 23.0463C63.8692 22.6393 64.3641 22.4356 64.9469 22.4356ZM64.9469 31.2996H71.6099C71.6703 31.2996 71.7004 31.2644 71.7004 31.1941V24.5309C71.7004 24.4606 71.6703 24.4255 71.6099 24.4255H64.9469C64.8766 24.4255 64.8414 24.4606 64.8414 24.5309V31.1941C64.8414 31.2644 64.8766 31.2996 64.9469 31.2996ZM86.5335 30.3951V22.4356H88.5384V33.2894H86.3679L79.6747 25.3301V33.2894H77.6848V22.4356H79.8556L86.5335 30.3951ZM103.372 24.4255H94.6436C94.5733 24.4255 94.5381 24.4606 94.5381 24.5309V31.1941C94.5381 31.2644 94.5733 31.2996 94.6436 31.2996H103.372V33.2894H94.6436C94.0607 33.2894 93.5657 33.0859 93.1589 32.6788C92.7518 32.2718 92.5483 31.777 92.5483 31.1941V24.5309C92.5483 23.9482 92.7518 23.4532 93.1589 23.0463C93.5657 22.6393 94.0607 22.4356 94.6436 22.4356H103.372V24.4255ZM117.271 22.4356V24.4255H109.296V26.8676H115.718V28.8574H109.296V31.2996H117.271V33.2894H107.291V22.4356H117.271ZM121.13 22.4507H129.873C130.456 22.4507 130.953 22.6568 131.365 23.0688C131.777 23.4809 131.983 23.9733 131.983 24.5462V27.4706C131.983 28.0433 131.777 28.5359 131.365 28.9479C130.953 29.36 130.456 29.5659 129.873 29.5659L123.165 29.581L123.119 29.5659V33.2894H121.13V22.4507ZM129.978 27.4706V24.5462C129.978 24.4759 129.943 24.4407 129.873 24.4407H123.225C123.155 24.4407 123.119 24.4759 123.119 24.5462V27.4706C123.119 27.5409 123.155 27.5761 123.225 27.5761H129.873C129.943 27.5761 129.978 27.5409 129.978 27.4706ZM134.832 22.4356H145.686V24.4255H141.269V33.2894H139.264V24.4255H134.832V22.4356ZM159.916 24.5309V25.3601H157.911V24.5309C157.911 24.4606 157.881 24.4255 157.821 24.4255H151.158C151.088 24.4255 151.052 24.4606 151.052 24.5309V26.7621C151.052 26.8324 151.088 26.8676 151.158 26.8676H157.821C158.394 26.8676 158.886 27.0711 159.298 27.4782C159.71 27.885 159.916 28.3801 159.916 28.963V31.1941C159.916 31.777 159.71 32.2718 159.298 32.6788C158.886 33.0859 158.394 33.2894 157.821 33.2894H151.158C150.575 33.2894 150.08 33.0859 149.673 32.6788C149.266 32.2718 149.062 31.777 149.062 31.1941V30.3649H151.052V31.1941C151.052 31.2644 151.088 31.2996 151.158 31.2996H157.821C157.881 31.2996 157.911 31.2644 157.911 31.1941V28.963C157.911 28.8927 157.881 28.8574 157.821 28.8574H151.158C150.575 28.8574 150.08 28.6539 149.673 28.247C149.266 27.84 149.062 27.3449 149.062 26.7621V24.5309C149.062 23.9482 149.266 23.4532 149.673 23.0463C150.08 22.6393 150.575 22.4356 151.158 22.4356H157.821C158.394 22.4356 158.886 22.6393 159.298 23.0463C159.71 23.4532 159.916 23.9482 159.916 24.5309Z" fill="var(--fill-0, #DCC090)"/>
</g>
</svg>
