<svg preserveAspectRatio="xMidYMid meet" width="100%" height="100%" viewBox="0 0 95 29" fill="none" xmlns="http://www.w3.org/2000/svg">
<g id="Frame 2131327260">
<g clip-path="url(#clip0_0_106)">
<g id="Union">
<mask id="path-2-inside-1_0_106" fill="white">
<path d="M7.39844 0C8.50301 6.87101e-08 9.39844 0.895431 9.39844 2V15.4707C9.39847 18.6258 11.9562 21.1836 15.1113 21.1836H79.8945C83.0496 21.1835 85.6074 18.6258 85.6074 15.4707V8.64746H85.6016V2C85.6016 0.895431 86.497 6.87101e-08 87.6016 0H94.5967C94.8176 0 94.9971 0.179477 94.9971 0.400391V8.56641H95V30.1836H0V8.56641H0.00292969V0.400391C0.00292969 0.179477 0.182406 0 0.40332 0H7.39844Z"/>
</mask>
<path d="M7.39844 0C8.50301 6.87101e-08 9.39844 0.895431 9.39844 2V15.4707C9.39847 18.6258 11.9562 21.1836 15.1113 21.1836H79.8945C83.0496 21.1835 85.6074 18.6258 85.6074 15.4707V8.64746H85.6016V2C85.6016 0.895431 86.497 6.87101e-08 87.6016 0H94.5967C94.8176 0 94.9971 0.179477 94.9971 0.400391V8.56641H95V30.1836H0V8.56641H0.00292969V0.400391C0.00292969 0.179477 0.182406 0 0.40332 0H7.39844Z" fill="#ffffff"/>
<path d="M7.39844 0V-0.6V-0.6V0ZM9.39844 15.4707H8.79844V15.4707L9.39844 15.4707ZM15.1113 21.1836L15.1113 21.7836H15.1113V21.1836ZM79.8945 21.1836V21.7836H79.8946L79.8945 21.1836ZM85.6074 15.4707L86.2074 15.4707V15.4707H85.6074ZM85.6074 8.64746H86.2074V8.04746H85.6074V8.64746ZM85.6016 8.64746H85.0016V9.24746H85.6016V8.64746ZM87.6016 0V-0.6V-0.6V0ZM94.9971 8.56641H94.3971V9.16641H94.9971V8.56641ZM95 8.56641H95.6V7.96641H95V8.56641ZM95 30.1836V30.7836H95.6V30.1836H95ZM0 30.1836H-0.6V30.7836H0V30.1836ZM0 8.56641V7.96641H-0.6V8.56641H0ZM0.00292969 8.56641V9.16641H0.60293V8.56641H0.00292969ZM7.39844 0V0.6C8.17164 0.6 8.79844 1.2268 8.79844 2H9.39844H9.99844C9.99844 0.56406 8.83438 -0.6 7.39844 -0.6V0ZM9.39844 2H8.79844V15.4707H9.39844H9.99844V2H9.39844ZM9.39844 15.4707L8.79844 15.4707C8.79847 18.9572 11.6248 21.7836 15.1113 21.7836L15.1113 21.1836L15.1113 20.5836C12.2876 20.5836 9.99846 18.2945 9.99844 15.4707L9.39844 15.4707ZM15.1113 21.1836V21.7836H79.8945V21.1836V20.5836H15.1113V21.1836ZM79.8945 21.1836L79.8946 21.7836C83.3809 21.7834 86.2074 18.9572 86.2074 15.4707L85.6074 15.4707L85.0074 15.4707C85.0074 18.2944 82.7182 20.5835 79.8945 20.5836L79.8945 21.1836ZM85.6074 15.4707H86.2074V8.64746H85.6074H85.0074V15.4707H85.6074ZM85.6074 8.64746V8.04746H85.6016V8.64746V9.24746H85.6074V8.64746ZM85.6016 8.64746H86.2016V2H85.6016H85.0016V8.64746H85.6016ZM85.6016 2H86.2016C86.2016 1.2268 86.8284 0.6 87.6016 0.6V0V-0.6C86.1656 -0.6 85.0016 0.56406 85.0016 2H85.6016ZM87.6016 0V0.6H94.5967V0V-0.6H87.6016V0ZM94.5967 0V0.6C94.4862 0.6 94.3971 0.510848 94.3971 0.400391H94.9971H95.5971C95.5971 -0.151894 95.149 -0.6 94.5967 -0.6V0ZM94.9971 0.400391H94.3971V8.56641H94.9971H95.5971V0.400391H94.9971ZM94.9971 8.56641V9.16641H95V8.56641V7.96641H94.9971V8.56641ZM95 8.56641H94.4V30.1836H95H95.6V8.56641H95ZM95 30.1836V29.5836H0V30.1836V30.7836H95V30.1836ZM0 30.1836H0.6V8.56641H0H-0.6V30.1836H0ZM0 8.56641V9.16641H0.00292969V8.56641V7.96641H0V8.56641ZM0.00292969 8.56641H0.60293V0.400391H0.00292969H-0.59707V8.56641H0.00292969ZM0.00292969 0.400391H0.60293C0.60293 0.510848 0.513777 0.6 0.40332 0.6V0V-0.6C-0.148964 -0.6 -0.59707 -0.151894 -0.59707 0.400391H0.00292969ZM0.40332 0V0.6H7.39844V0V-0.6H0.40332V0Z" fill="#C9C9C9" mask="url(#path-2-inside-1_0_106)"/>
</g>
</g>
</g>
<defs>
<clipPath id="clip0_0_106">
<path d="M0 0.4C0 0.179086 0.179086 0 0.4 0H94.6C94.8209 0 95 0.179086 95 0.4V29H0V0.4Z" fill="white"/>
</clipPath>
</defs>
</svg>
