<svg preserveAspectRatio="xMidYMid meet" width="100%" height="100%" overflow="visible" style="display: block;" viewBox="0 0 104 104" fill="none" xmlns="http://www.w3.org/2000/svg">
<g id="Play Icon">
<path id="Vector" fill-rule="evenodd" clip-rule="evenodd" d="M52.25 10C43.8937 10 35.7251 12.4779 28.7772 17.1204C21.8292 21.7629 16.4139 28.3614 13.2161 36.0816C10.0183 43.8018 9.1816 52.2969 10.8118 60.4926C12.442 68.6883 16.466 76.2165 22.3747 82.1253C28.2835 88.034 35.8117 92.0579 44.0074 93.6882C52.2031 95.3184 60.6982 94.4817 68.4184 91.2839C76.1385 88.0861 82.7371 82.6708 87.3796 75.7228C92.0221 68.7749 94.5 60.6063 94.5 52.25C94.4882 41.0482 90.033 30.3087 82.1122 22.3878C74.1913 14.467 63.4518 10.0118 52.25 10ZM68.7234 54.9231L47.5984 69.5481C47.1107 69.8854 46.5401 70.0827 45.9483 70.1189C45.3564 70.1551 44.766 70.0287 44.2409 69.7533C43.7157 69.478 43.2759 69.0643 42.9691 68.5569C42.6622 68.0496 42.5 67.4679 42.5 66.875V37.625C42.5 37.0321 42.6622 36.4504 42.9691 35.9431C43.2759 35.4357 43.7157 35.022 44.2409 34.7467C44.766 34.4713 45.3564 34.3449 45.9483 34.3811C46.5401 34.4173 47.1107 34.6146 47.5984 34.9519L68.7234 49.5769C69.1558 49.8759 69.5092 50.2753 69.7533 50.7409C69.9974 51.2065 70.1249 51.7243 70.1249 52.25C70.1249 52.7757 69.9974 53.2935 69.7533 53.7591C69.5092 54.2247 69.1558 54.6241 68.7234 54.9231Z" fill="#FFFFFF"/>
</g>
</svg>
